<svg 
 xmlns="http://www.w3.org/2000/svg"
 xmlns:xlink="http://www.w3.org/1999/xlink"
 width="50px" height="60px">
<path fill-rule="evenodd"  fill="rgb(255, 255, 255)"
 d="M49.794,31.319 L41.332,59.376 C41.218,59.756 40.873,60.000 40.500,60.000 C40.416,60.000 40.331,59.987 40.246,59.961 C39.786,59.819 39.527,59.327 39.668,58.862 L47.029,34.456 C46.947,34.495 46.865,34.532 46.781,34.569 C45.976,34.912 45.098,35.084 44.199,35.084 C43.479,35.084 42.746,34.973 42.027,34.751 C40.410,34.252 39.045,33.244 38.184,31.912 C38.134,31.835 38.087,31.757 38.041,31.679 L29.687,59.376 C29.573,59.756 29.228,60.000 28.856,60.000 C28.771,60.000 28.686,59.987 28.601,59.961 C28.142,59.819 27.883,59.327 28.023,58.862 L33.913,39.334 L26.355,39.334 L20.120,47.448 C19.955,47.663 19.701,47.789 19.433,47.789 C19.423,47.789 19.412,47.788 19.402,47.788 C19.122,47.777 18.864,47.631 18.709,47.396 L13.399,39.334 L4.583,39.334 C3.017,39.334 1.741,40.624 1.741,42.211 L1.695,60.000 L0.001,59.980 L0.001,42.211 C0.001,39.653 2.057,37.573 4.584,37.573 L12.959,37.573 C9.100,35.305 6.498,31.075 6.498,26.242 L6.498,26.181 C6.479,26.181 6.459,26.184 6.440,26.184 C4.425,26.184 2.786,24.524 2.786,22.485 C2.786,21.282 3.356,20.211 4.238,19.536 C3.930,19.400 3.714,19.090 3.714,18.727 L3.714,15.909 C3.714,15.423 4.103,15.029 4.584,15.029 L5.593,15.029 C5.754,11.609 6.860,8.625 8.819,6.360 C10.778,4.095 13.499,2.629 16.707,2.100 L16.707,0.880 C16.707,0.393 17.097,-0.001 17.577,-0.001 L21.289,-0.001 C21.770,-0.001 22.159,0.393 22.159,0.880 L22.159,2.100 C25.390,2.633 28.128,4.117 30.088,6.407 C32.022,8.666 33.113,11.633 33.274,15.029 L34.282,15.029 C34.763,15.029 35.153,15.423 35.153,15.909 L35.153,18.727 C35.153,19.090 34.937,19.400 34.629,19.535 C35.510,20.211 36.081,21.282 36.081,22.485 C36.081,24.524 34.442,26.183 32.426,26.183 C32.407,26.183 32.388,26.181 32.368,26.181 L32.368,26.242 C32.368,31.075 29.767,35.305 25.907,37.573 L34.282,37.573 C34.336,37.573 34.389,37.574 34.442,37.577 L37.477,27.514 C38.365,24.573 41.849,23.033 45.244,24.082 C48.640,25.132 50.681,28.378 49.794,31.319 ZM19.488,45.402 L24.151,39.334 L15.491,39.334 L19.488,45.402 ZM4.525,22.485 C4.525,23.553 5.384,24.422 6.440,24.422 C6.459,24.422 6.479,24.421 6.498,24.420 L6.498,20.550 C6.479,20.550 6.459,20.547 6.440,20.547 C5.384,20.547 4.525,21.417 4.525,22.485 ZM16.707,3.886 C11.164,4.917 7.652,9.103 7.336,15.029 L16.707,15.029 L16.707,3.886 ZM20.419,1.761 L18.447,1.761 L18.447,15.029 L20.419,15.029 L20.419,1.761 ZM33.413,16.790 L28.856,16.790 C28.375,16.790 27.985,16.396 27.985,15.909 C27.985,15.423 28.375,15.029 28.856,15.029 L31.531,15.029 C31.214,9.111 27.700,4.917 22.159,3.885 L22.159,15.029 L24.649,15.029 C25.129,15.029 25.519,15.423 25.519,15.909 C25.519,16.396 25.129,16.790 24.649,16.790 L5.454,16.790 L5.454,17.847 L33.413,17.847 L33.413,16.790 ZM32.368,24.420 C32.388,24.421 32.408,24.422 32.427,24.422 C33.482,24.422 34.341,23.553 34.341,22.485 C34.341,21.417 33.482,20.547 32.427,20.547 C32.407,20.547 32.388,20.550 32.368,20.550 L32.368,24.420 ZM30.629,26.242 L30.629,19.608 L8.238,19.608 L8.238,26.242 C8.238,32.490 13.260,37.573 19.434,37.573 C25.606,37.573 30.629,32.490 30.629,26.242 ZM44.736,25.767 C44.176,25.594 43.613,25.512 43.072,25.512 C41.220,25.512 39.611,26.471 39.142,28.028 C38.857,28.974 39.033,30.011 39.639,30.947 C40.278,31.934 41.306,32.687 42.535,33.067 C43.763,33.446 45.031,33.403 46.106,32.946 C47.126,32.511 47.845,31.750 48.129,30.805 C48.736,28.793 47.214,26.533 44.736,25.767 ZM44.253,32.276 C43.800,32.276 43.322,32.205 42.840,32.056 C41.966,31.786 41.205,31.292 40.697,30.663 C40.114,29.945 39.911,29.096 40.140,28.337 C40.370,27.578 41.005,26.989 41.886,26.721 C42.654,26.488 43.557,26.507 44.431,26.778 C46.391,27.383 47.577,29.017 47.131,30.497 C46.795,31.612 45.640,32.276 44.253,32.276 ZM43.924,28.463 C43.385,28.296 42.743,28.238 42.215,28.472 C42.037,28.551 41.842,28.677 41.797,28.883 C41.743,29.125 41.898,29.369 42.042,29.547 C42.331,29.904 42.807,30.205 43.348,30.371 C44.465,30.717 45.349,30.371 45.466,29.982 C45.584,29.593 45.041,28.808 43.924,28.463 ZM14.851,29.060 C14.851,28.574 15.240,28.180 15.721,28.180 L23.146,28.180 C23.626,28.180 24.016,28.574 24.016,29.060 C24.016,31.618 21.960,33.698 19.434,33.698 C16.907,33.698 14.851,31.618 14.851,29.060 ZM22.139,29.941 L16.727,29.941 C17.095,31.098 18.170,31.937 19.434,31.937 C20.697,31.937 21.771,31.098 22.139,29.941 ZM25.002,20.665 C25.482,20.665 25.872,21.059 25.872,21.546 L25.872,22.485 C25.872,22.971 25.482,23.366 25.002,23.366 C24.522,23.366 24.132,22.971 24.132,22.485 L24.132,21.546 C24.132,21.059 24.522,20.665 25.002,20.665 ZM20.211,26.636 C20.059,26.944 19.752,27.123 19.433,27.123 C19.302,27.123 19.169,27.093 19.044,27.030 L17.188,26.090 C16.758,25.873 16.584,25.344 16.799,24.909 L18.655,21.152 C18.870,20.717 19.393,20.540 19.823,20.758 C20.252,20.975 20.427,21.504 20.211,21.939 L18.744,24.909 L19.823,25.454 C20.252,25.672 20.427,26.201 20.211,26.636 ZM13.865,23.366 C13.384,23.366 12.995,22.971 12.995,22.485 L12.995,21.546 C12.995,21.059 13.384,20.665 13.865,20.665 C14.345,20.665 14.734,21.059 14.734,21.546 L14.734,22.485 C14.734,22.971 14.345,23.366 13.865,23.366 Z"/>
</svg>