<svg 
 xmlns="http://www.w3.org/2000/svg"
 xmlns:xlink="http://www.w3.org/1999/xlink"
 width="46px" height="60px">
<path fill-rule="evenodd"  fill="rgb(255, 255, 255)"
 d="M6.349,26.897 L39.764,26.897 C40.234,26.897 40.615,27.280 40.615,27.752 C40.615,28.223 40.234,28.606 39.764,28.606 L6.349,28.606 C5.879,28.606 5.498,28.223 5.498,27.752 C5.498,27.280 5.879,26.897 6.349,26.897 ZM6.349,35.709 L22.159,35.709 C22.629,35.709 23.010,36.091 23.010,36.563 C23.010,37.034 22.629,37.417 22.159,37.417 L6.349,37.417 C5.879,37.417 5.498,37.034 5.498,36.563 C5.498,36.091 5.879,35.709 6.349,35.709 ZM6.415,46.228 C5.945,46.228 5.565,45.846 5.565,45.374 C5.565,44.902 5.945,44.520 6.415,44.520 L9.146,44.520 C9.616,44.520 9.997,44.902 9.997,45.374 C9.997,45.846 9.616,46.228 9.146,46.228 L6.415,46.228 ZM14.430,46.228 C13.961,46.228 13.580,45.846 13.580,45.374 C13.580,44.902 13.961,44.520 14.430,44.520 L22.263,44.520 C22.733,44.520 23.113,44.902 23.113,45.374 C23.113,45.846 22.733,46.228 22.263,46.228 L14.430,46.228 ZM26.469,54.185 C26.469,54.657 26.088,55.039 25.618,55.039 L6.349,55.039 C5.879,55.039 5.498,54.657 5.498,54.185 C5.498,53.714 5.879,53.331 6.349,53.331 L25.618,53.331 C26.088,53.331 26.469,53.714 26.469,54.185 ZM43.359,44.040 C43.153,44.814 42.571,45.409 41.803,45.630 C41.515,45.713 41.346,46.007 41.418,46.299 C41.612,47.077 41.390,47.880 40.825,48.448 C40.260,49.014 39.460,49.237 38.685,49.043 C38.605,49.023 38.525,49.023 38.449,49.037 L38.449,56.454 C38.449,56.842 38.233,57.189 37.885,57.359 C37.538,57.529 37.133,57.486 36.829,57.246 L33.901,54.944 L30.973,57.246 C30.792,57.389 30.576,57.462 30.357,57.462 C30.208,57.462 30.058,57.428 29.917,57.359 C29.569,57.189 29.353,56.842 29.353,56.454 L29.353,49.037 C29.277,49.023 29.197,49.023 29.117,49.043 C28.342,49.237 27.542,49.014 26.977,48.447 C26.412,47.880 26.190,47.077 26.384,46.299 C26.456,46.007 26.287,45.713 25.999,45.630 C25.231,45.409 24.649,44.814 24.442,44.040 C24.236,43.265 24.444,42.458 24.999,41.882 C25.207,41.665 25.207,41.326 24.999,41.109 C24.444,40.533 24.236,39.726 24.443,38.951 C24.649,38.177 25.231,37.582 25.999,37.361 C26.287,37.278 26.456,36.984 26.384,36.692 C26.190,35.914 26.412,35.111 26.977,34.544 C27.542,33.977 28.341,33.754 29.117,33.948 C29.408,34.021 29.700,33.852 29.783,33.562 C30.003,32.791 30.595,32.207 31.366,32.000 C32.138,31.792 32.942,32.001 33.516,32.558 C33.732,32.767 34.070,32.767 34.286,32.558 C34.860,32.001 35.663,31.791 36.435,32.000 C37.207,32.207 37.799,32.791 38.019,33.562 C38.102,33.852 38.394,34.022 38.685,33.948 C39.460,33.754 40.260,33.977 40.825,34.544 C41.390,35.111 41.612,35.914 41.418,36.692 C41.346,36.984 41.515,37.278 41.803,37.361 C42.571,37.582 43.153,38.177 43.359,38.951 C43.566,39.726 43.358,40.533 42.803,41.109 C42.595,41.326 42.595,41.665 42.803,41.882 C43.358,42.458 43.566,43.265 43.359,44.040 ZM31.054,55.013 L33.283,53.260 C33.465,53.117 33.683,53.045 33.901,53.045 C34.119,53.045 34.337,53.116 34.519,53.259 L36.747,55.012 L36.747,50.883 C36.742,50.886 36.737,50.887 36.732,50.889 C36.700,50.903 36.668,50.915 36.635,50.927 C36.618,50.933 36.602,50.940 36.586,50.946 C36.539,50.961 36.491,50.976 36.443,50.990 C36.440,50.990 36.437,50.991 36.435,50.992 C36.401,51.001 36.367,51.008 36.334,51.016 C35.648,51.168 34.947,50.996 34.410,50.546 C34.367,50.510 34.326,50.473 34.285,50.434 C34.069,50.224 33.731,50.225 33.516,50.434 C33.468,50.480 33.418,50.523 33.368,50.564 C33.355,50.575 33.342,50.585 33.329,50.594 C33.279,50.634 33.228,50.672 33.176,50.706 C33.174,50.707 33.173,50.708 33.172,50.709 C33.118,50.744 33.062,50.776 33.006,50.806 C32.992,50.814 32.978,50.821 32.964,50.828 C32.909,50.856 32.854,50.882 32.797,50.905 C32.795,50.906 32.793,50.907 32.790,50.908 C32.731,50.932 32.671,50.953 32.610,50.971 C32.596,50.976 32.582,50.980 32.567,50.984 C32.509,51.001 32.451,51.016 32.391,51.027 C32.388,51.028 32.385,51.029 32.381,51.029 C32.319,51.042 32.256,51.051 32.192,51.057 C32.177,51.059 32.162,51.060 32.148,51.062 C32.089,51.066 32.030,51.069 31.971,51.070 C31.966,51.070 31.962,51.071 31.957,51.071 C31.956,51.071 31.955,51.070 31.953,51.070 C31.922,51.070 31.890,51.069 31.859,51.067 C31.841,51.066 31.824,51.066 31.807,51.065 C31.773,51.063 31.739,51.059 31.705,51.055 C31.690,51.053 31.675,51.052 31.660,51.050 C31.623,51.045 31.586,51.039 31.549,51.032 C31.537,51.029 31.525,51.028 31.513,51.026 C31.474,51.018 31.435,51.008 31.395,50.998 C31.386,50.996 31.376,50.994 31.366,50.991 C31.315,50.977 31.264,50.962 31.215,50.945 C31.200,50.940 31.185,50.934 31.171,50.928 C31.136,50.916 31.102,50.903 31.068,50.889 C31.064,50.886 31.059,50.885 31.054,50.883 L31.054,55.013 ZM41.579,39.923 C41.776,39.718 41.740,39.484 41.716,39.393 C41.692,39.301 41.606,39.081 41.334,39.002 C40.160,38.664 39.472,37.468 39.768,36.279 C39.836,36.003 39.689,35.818 39.622,35.751 C39.555,35.684 39.370,35.536 39.096,35.605 C37.912,35.901 36.720,35.211 36.384,34.032 C36.306,33.760 36.086,33.673 35.995,33.648 C35.904,33.624 35.670,33.589 35.467,33.786 C34.589,34.638 33.213,34.637 32.335,33.786 C32.131,33.589 31.897,33.624 31.807,33.649 C31.716,33.673 31.496,33.760 31.418,34.032 C31.081,35.211 29.890,35.901 28.705,35.605 C28.431,35.536 28.246,35.685 28.179,35.751 C28.113,35.818 27.965,36.003 28.034,36.279 C28.329,37.468 27.641,38.665 26.468,39.002 C26.196,39.081 26.110,39.301 26.085,39.393 C26.061,39.484 26.026,39.719 26.222,39.923 C27.070,40.804 27.070,42.186 26.222,43.068 C26.026,43.272 26.061,43.507 26.085,43.598 C26.110,43.689 26.196,43.910 26.468,43.988 C27.641,44.326 28.329,45.522 28.034,46.712 C27.965,46.987 28.113,47.173 28.179,47.239 C28.246,47.307 28.431,47.455 28.705,47.385 C28.890,47.339 29.076,47.317 29.258,47.317 C30.086,47.317 30.848,47.777 31.238,48.516 C31.243,48.525 31.248,48.535 31.253,48.544 C31.270,48.578 31.287,48.611 31.302,48.646 C31.314,48.671 31.324,48.697 31.335,48.722 C31.344,48.746 31.354,48.770 31.364,48.794 C31.383,48.848 31.402,48.903 31.418,48.958 C31.496,49.231 31.716,49.317 31.807,49.342 C31.833,49.349 31.874,49.357 31.921,49.360 C31.980,49.363 32.052,49.358 32.128,49.331 C32.166,49.319 32.205,49.301 32.243,49.276 C32.248,49.273 32.253,49.271 32.257,49.268 C32.261,49.265 32.266,49.261 32.270,49.258 C32.291,49.242 32.313,49.225 32.335,49.205 C33.213,48.353 34.588,48.353 35.467,49.205 C35.578,49.312 35.697,49.350 35.798,49.358 C35.882,49.365 35.954,49.353 35.995,49.342 C36.018,49.336 36.048,49.326 36.083,49.310 C36.146,49.281 36.222,49.231 36.285,49.151 C36.325,49.100 36.361,49.038 36.384,48.958 C36.402,48.895 36.423,48.833 36.447,48.773 C36.455,48.751 36.464,48.729 36.473,48.707 C36.488,48.672 36.504,48.638 36.520,48.604 C36.974,47.646 38.037,47.120 39.097,47.386 C39.370,47.454 39.556,47.307 39.622,47.239 C39.689,47.173 39.836,46.987 39.768,46.712 C39.472,45.523 40.160,44.326 41.334,43.989 C41.606,43.910 41.692,43.689 41.716,43.598 C41.740,43.506 41.776,43.272 41.579,43.068 C40.731,42.186 40.731,40.804 41.579,39.923 ZM38.040,45.651 C38.040,45.651 38.040,45.651 38.040,45.651 C36.899,46.797 35.400,47.369 33.901,47.369 C32.402,47.369 30.903,46.797 29.762,45.651 C27.480,43.360 27.480,39.632 29.762,37.340 C32.044,35.048 35.757,35.048 38.040,37.340 C40.322,39.632 40.322,43.360 38.040,45.651 ZM36.837,38.547 C36.028,37.735 34.964,37.328 33.901,37.328 C32.838,37.328 31.774,37.735 30.965,38.547 C29.345,40.173 29.345,42.818 30.965,44.444 C32.584,46.069 35.218,46.069 36.837,44.444 C38.456,42.818 38.456,40.173 36.837,38.547 ZM45.149,24.339 C45.619,24.339 46.000,24.721 46.000,25.193 L46.000,58.226 C46.000,59.204 45.207,60.000 44.233,60.000 L1.766,60.000 C0.792,60.000 -0.000,59.204 -0.000,58.226 L-0.000,1.773 C-0.000,0.795 0.792,-0.001 1.766,-0.001 L31.569,-0.001 C31.578,-0.001 31.587,0.001 31.597,0.001 C31.607,0.001 31.617,0.002 31.627,0.002 C31.662,0.005 31.697,0.009 31.731,0.016 C31.732,0.016 31.734,0.016 31.735,0.016 C31.771,0.023 31.806,0.033 31.840,0.045 C31.849,0.048 31.858,0.051 31.867,0.055 C31.900,0.067 31.931,0.081 31.962,0.097 C31.964,0.098 31.966,0.098 31.968,0.100 C32.001,0.117 32.032,0.138 32.062,0.159 C32.069,0.164 32.077,0.170 32.084,0.176 C32.114,0.199 32.143,0.223 32.170,0.250 L45.751,13.885 C45.778,13.912 45.802,13.941 45.825,13.970 C45.830,13.978 45.836,13.986 45.841,13.993 C45.863,14.023 45.883,14.054 45.900,14.087 C45.901,14.088 45.902,14.090 45.903,14.092 C45.919,14.123 45.933,14.156 45.945,14.189 C45.948,14.198 45.952,14.206 45.955,14.215 C45.966,14.250 45.976,14.285 45.984,14.322 C45.984,14.322 45.984,14.323 45.984,14.323 C45.991,14.358 45.995,14.394 45.997,14.431 C45.998,14.440 45.998,14.449 45.999,14.459 C45.999,14.469 46.000,14.479 46.000,14.488 L46.000,19.829 C46.000,20.300 45.619,20.683 45.149,20.683 C44.680,20.683 44.299,20.300 44.299,19.829 L44.299,15.342 L32.515,15.342 C31.524,15.342 30.718,14.533 30.718,13.538 L30.718,1.707 L1.766,1.707 C1.730,1.707 1.701,1.737 1.701,1.773 L1.701,58.226 C1.701,58.262 1.730,58.292 1.766,58.292 L44.233,58.292 C44.269,58.292 44.299,58.262 44.299,58.226 L44.299,25.193 C44.299,24.721 44.680,24.339 45.149,24.339 ZM32.419,13.538 C32.419,13.591 32.462,13.634 32.515,13.634 L43.096,13.634 L32.419,2.915 L32.419,13.538 Z"/>
</svg>