<svg 
 xmlns="http://www.w3.org/2000/svg"
 xmlns:xlink="http://www.w3.org/1999/xlink"
 width="45px" height="60px">
<path fill-rule="evenodd"  fill="rgb(255, 255, 255)"
 d="M43.963,56.645 L39.088,55.776 L36.027,59.666 C35.611,60.195 34.750,60.062 34.511,59.435 L27.052,39.867 L26.547,40.367 C26.378,40.534 26.155,40.621 25.927,40.621 C25.802,40.621 25.676,40.595 25.557,40.540 L22.500,39.129 L19.442,40.540 C19.109,40.695 18.714,40.625 18.453,40.367 L17.948,39.867 L10.489,59.435 C10.250,60.062 9.389,60.195 8.973,59.666 L5.912,55.776 L1.037,56.645 C0.375,56.762 -0.181,56.092 0.059,55.464 L8.192,34.125 L7.148,33.841 C6.794,33.744 6.536,33.438 6.502,33.072 L6.191,29.720 L3.439,27.778 C3.139,27.566 3.002,27.190 3.096,26.835 L3.955,23.579 L2.037,20.812 C1.829,20.510 1.829,20.110 2.037,19.809 L3.955,17.041 L3.096,13.786 C3.002,13.430 3.139,13.054 3.439,12.842 L6.192,10.900 L6.502,7.548 C6.537,7.182 6.794,6.877 7.148,6.780 L10.397,5.894 L11.832,2.848 C11.988,2.516 12.337,2.316 12.702,2.346 L16.059,2.623 L18.453,0.254 C18.714,-0.004 19.109,-0.074 19.442,0.080 L22.500,1.492 L25.557,0.080 C25.892,-0.074 26.286,-0.004 26.547,0.254 L28.941,2.622 L32.299,2.345 C32.665,2.316 33.011,2.516 33.168,2.848 L34.603,5.894 L37.852,6.780 C38.206,6.877 38.464,7.182 38.497,7.548 L38.809,10.900 L41.560,12.842 C41.861,13.054 41.998,13.430 41.904,13.786 L41.045,17.041 L42.962,19.809 C43.171,20.110 43.171,20.510 42.962,20.812 L41.045,23.579 L41.904,26.835 C41.998,27.190 41.861,27.566 41.560,27.778 L38.808,29.720 L38.497,33.072 C38.463,33.438 38.206,33.744 37.852,33.841 L36.808,34.125 L44.941,55.464 C45.181,56.092 44.624,56.762 43.963,56.645 ZM2.260,54.637 L6.123,53.949 C6.443,53.892 6.769,54.016 6.971,54.271 L9.396,57.354 L16.578,38.511 L16.059,37.998 L12.701,38.274 C12.335,38.304 11.988,38.105 11.831,37.772 L10.397,34.726 L9.901,34.591 L2.260,54.637 ZM37.092,29.154 C37.116,28.897 37.250,28.664 37.461,28.515 L40.044,26.693 L39.238,23.636 C39.171,23.387 39.219,23.122 39.365,22.911 L41.166,20.310 L39.365,17.710 C39.219,17.499 39.171,17.233 39.238,16.985 L40.044,13.928 L37.461,12.105 C37.250,11.956 37.115,11.724 37.092,11.467 L36.799,8.319 L33.747,7.486 C33.498,7.419 33.292,7.245 33.181,7.012 L31.834,4.152 L28.682,4.410 C28.425,4.432 28.173,4.340 27.990,4.159 L25.742,1.935 L22.869,3.261 C22.635,3.369 22.365,3.369 22.131,3.261 L19.258,1.935 L17.010,4.159 C16.828,4.340 16.575,4.432 16.318,4.410 L13.166,4.152 L11.819,7.012 C11.709,7.245 11.502,7.419 11.253,7.486 L8.201,8.318 L7.908,11.467 C7.884,11.723 7.750,11.956 7.539,12.105 L4.956,13.928 L5.762,16.985 C5.828,17.233 5.781,17.498 5.635,17.710 L3.834,20.310 L5.635,22.911 C5.781,23.121 5.828,23.387 5.762,23.636 L4.956,26.693 L7.539,28.515 C7.750,28.664 7.885,28.897 7.908,29.153 L8.201,32.302 L11.253,33.133 C11.502,33.201 11.708,33.375 11.818,33.609 L13.166,36.469 L16.318,36.209 C16.575,36.188 16.828,36.280 17.010,36.461 L18.214,37.652 C18.215,37.654 18.217,37.655 18.218,37.656 L19.258,38.685 L22.131,37.359 C22.248,37.305 22.374,37.278 22.500,37.278 C22.626,37.278 22.752,37.305 22.869,37.359 L25.742,38.685 L27.990,36.461 C28.173,36.280 28.425,36.188 28.682,36.210 L31.834,36.469 L33.181,33.609 C33.291,33.375 33.498,33.202 33.747,33.133 L36.799,32.302 L37.092,29.154 ZM35.099,34.591 L34.603,34.726 L33.168,37.772 C33.011,38.105 32.664,38.304 32.298,38.275 L28.941,37.998 L28.422,38.511 L35.604,57.354 L38.030,54.271 C38.231,54.016 38.557,53.892 38.877,53.949 L42.740,54.637 L35.099,34.591 ZM22.500,34.342 C14.758,34.342 8.460,28.047 8.460,20.310 C8.460,12.573 14.758,6.278 22.500,6.278 C24.968,6.278 27.396,6.928 29.520,8.156 C29.942,8.400 30.086,8.938 29.842,9.359 C29.599,9.780 29.059,9.925 28.638,9.681 C26.781,8.607 24.659,8.040 22.500,8.040 C15.730,8.040 10.222,13.544 10.222,20.310 C10.222,22.110 10.613,23.821 11.312,25.363 L12.294,27.124 C14.499,30.412 18.250,32.581 22.500,32.581 C26.222,32.581 31.254,28.394 32.444,27.355 C32.964,26.510 33.688,25.363 33.688,25.363 C34.388,23.821 34.777,22.110 34.777,20.310 C34.777,17.277 33.662,14.366 31.636,12.112 C31.311,11.751 31.340,11.194 31.702,10.869 C32.064,10.544 32.621,10.574 32.947,10.936 C35.264,13.513 36.540,16.842 36.540,20.310 C36.540,28.047 30.242,34.342 22.500,34.342 Z"/>
</svg>