<svg 
 xmlns="http://www.w3.org/2000/svg"
 xmlns:xlink="http://www.w3.org/1999/xlink"
 width="56px" height="52px">
<path fill-rule="evenodd"  fill="rgb(166, 0, 0)"
 d="M55.916,48.885 L55.916,51.108 L47.479,51.108 L47.479,39.246 L55.916,39.246 L55.916,41.469 L50.018,41.469 L50.018,43.977 L55.791,43.977 L55.791,46.200 L50.018,46.200 L50.018,48.885 L55.916,48.885 ZM48.932,30.805 L37.727,17.586 L34.760,20.935 L34.760,30.805 L31.084,30.805 L31.084,1.415 L34.760,1.415 L34.760,16.617 L47.825,1.415 L52.431,1.415 L40.119,15.383 L53.494,30.805 L48.932,30.805 ZM26.152,39.246 L28.690,39.246 L28.690,51.108 L26.152,51.108 L26.152,39.246 ZM22.354,22.698 C22.354,26.972 19.431,31.334 11.459,31.334 C6.322,31.334 2.557,29.395 0.121,26.664 L2.292,23.887 C4.240,26.047 7.429,28.074 11.592,28.074 C16.862,28.074 18.545,25.253 18.545,23.006 C18.545,15.427 1.052,19.613 1.052,9.126 C1.052,4.279 5.392,0.974 11.193,0.974 C15.711,0.974 19.209,2.472 21.689,5.072 L19.475,7.760 C17.261,5.336 14.161,4.235 10.928,4.235 C7.385,4.235 4.860,6.130 4.860,8.906 C4.860,15.515 22.354,11.726 22.354,22.698 ZM8.496,41.469 L2.597,41.469 L2.597,43.977 L8.371,43.977 L8.371,46.200 L2.597,46.200 L2.597,48.885 L8.496,48.885 L8.496,51.108 L0.059,51.108 L0.059,39.246 L8.496,39.246 L8.496,41.469 ZM16.120,48.885 L21.161,48.885 L21.161,51.108 L13.582,51.108 L13.582,39.246 L16.120,39.246 L16.120,48.885 ZM42.733,41.469 L39.265,41.469 L39.265,51.108 L36.709,51.108 L36.709,41.469 L33.223,41.469 L33.223,39.246 L42.733,39.246 L42.733,41.469 Z"/>
</svg>