<svg 
 xmlns="http://www.w3.org/2000/svg"
 xmlns:xlink="http://www.w3.org/1999/xlink"
 width="60px" height="60px">
<path fill-rule="evenodd"  fill="rgb(255, 255, 255)"
 d="M60.000,45.593 L60.000,49.084 C60.000,52.152 57.503,54.650 54.434,54.650 L43.665,54.650 C40.069,57.968 35.267,59.999 30.000,59.999 C24.733,59.999 19.931,57.968 16.335,54.650 L5.566,54.650 C2.497,54.650 -0.000,52.152 -0.000,49.084 L-0.000,18.237 C-0.000,15.167 2.497,12.670 5.566,12.670 L15.515,12.670 L18.482,5.139 C19.729,2.015 22.704,-0.001 26.064,-0.001 L33.936,-0.001 C37.295,-0.001 40.271,2.015 41.516,5.135 L44.485,12.670 L54.434,12.670 C57.503,12.670 60.000,15.167 60.000,18.237 L60.000,40.972 C60.000,42.108 58.242,42.108 58.242,40.972 L58.242,32.994 L48.971,32.994 C49.744,35.130 50.166,37.433 50.166,39.833 C50.166,44.810 48.353,49.371 45.354,52.892 L54.434,52.892 C56.534,52.892 58.242,51.183 58.242,49.084 L58.242,45.593 C58.242,44.456 60.000,44.456 60.000,45.593 ZM1.758,49.084 C1.758,51.183 3.466,52.892 5.566,52.892 L14.646,52.892 C11.647,49.371 9.833,44.810 9.833,39.833 C9.833,37.467 10.241,35.160 11.021,32.994 L1.758,32.994 L1.758,49.084 ZM39.882,5.783 C38.907,3.339 36.572,1.757 33.936,1.757 L26.064,1.757 C23.428,1.757 21.094,3.339 20.116,5.787 L17.404,12.670 L20.928,12.670 L22.994,7.364 C23.609,5.822 25.073,4.830 26.725,4.830 L33.280,4.830 C34.932,4.830 36.396,5.822 37.009,7.357 L39.108,12.671 L42.596,12.671 L39.882,5.783 ZM22.814,12.670 L37.217,12.670 L35.375,8.005 C35.032,7.146 34.209,6.588 33.280,6.588 L26.725,6.588 C25.796,6.588 24.973,7.146 24.629,8.009 L22.814,12.670 ZM48.409,39.833 C48.409,29.682 40.151,21.424 30.000,21.424 C26.557,21.424 23.198,22.382 20.287,24.194 C19.322,24.794 18.394,23.301 19.359,22.702 C22.548,20.716 26.228,19.667 30.000,19.667 C31.818,19.667 33.580,19.910 35.257,20.363 L35.257,19.386 C35.257,18.255 36.177,17.334 37.308,17.334 L53.379,17.334 C54.510,17.334 55.430,18.255 55.430,19.386 L55.430,26.422 C55.430,27.552 54.510,28.473 53.379,28.473 L46.653,28.473 C47.251,29.347 47.783,30.271 48.239,31.236 L58.242,31.236 L58.242,18.237 C58.242,16.137 56.534,14.428 54.434,14.428 L5.566,14.428 C3.466,14.428 1.758,16.137 1.758,18.237 L1.758,31.236 L11.750,31.236 C12.701,29.222 13.990,27.361 15.591,25.726 C16.386,24.914 17.641,26.144 16.847,26.956 C15.275,28.561 14.032,30.406 13.149,32.404 C13.134,32.450 13.115,32.493 13.092,32.535 C12.109,34.812 11.591,37.284 11.591,39.833 C11.591,49.984 19.849,58.242 30.000,58.242 C40.151,58.242 48.409,49.984 48.409,39.833 ZM45.304,26.715 L53.379,26.715 C53.541,26.715 53.672,26.583 53.672,26.422 L53.672,19.386 C53.672,19.224 53.541,19.093 53.379,19.093 L37.308,19.093 C37.146,19.093 37.015,19.224 37.015,19.386 L37.015,20.925 C40.250,22.130 43.095,24.141 45.304,26.715 ZM30.000,54.864 C21.712,54.864 14.969,48.121 14.969,39.833 C14.969,31.545 21.712,24.803 30.000,24.803 C38.288,24.803 45.030,31.545 45.030,39.833 C45.030,48.121 38.288,54.864 30.000,54.864 ZM30.000,26.561 C22.681,26.561 16.727,32.515 16.727,39.833 C16.727,47.152 22.682,53.105 30.000,53.105 C37.318,53.105 43.273,47.152 43.273,39.833 C43.273,32.515 37.319,26.561 30.000,26.561 Z"/>
</svg>