<svg 
 xmlns="http://www.w3.org/2000/svg"
 xmlns:xlink="http://www.w3.org/1999/xlink"
 width="45px" height="60px">
<path fill-rule="evenodd"  fill="rgb(255, 255, 255)"
 d="M41.247,53.483 C41.247,55.005 40.010,56.242 38.490,56.242 L32.860,56.242 C31.340,56.242 30.104,55.005 30.104,53.483 L30.104,34.696 C30.104,33.175 31.340,31.937 32.860,31.937 L38.490,31.937 C40.010,31.937 41.247,33.175 41.247,34.696 L41.247,53.483 ZM39.487,34.696 C39.487,34.146 39.040,33.698 38.490,33.698 L32.860,33.698 C32.310,33.698 31.863,34.146 31.863,34.696 L31.863,53.483 C31.863,54.034 32.310,54.481 32.860,54.481 L38.490,54.481 C39.040,54.481 39.487,54.034 39.487,53.483 L39.487,34.696 ZM36.613,46.849 L34.737,46.849 C34.251,46.849 33.857,46.455 33.857,45.968 C33.857,45.482 34.251,45.087 34.737,45.087 L36.613,45.087 C37.099,45.087 37.493,45.482 37.493,45.968 C37.493,46.455 37.099,46.849 36.613,46.849 ZM36.613,44.031 L34.737,44.031 C34.251,44.031 33.857,43.637 33.857,43.150 C33.857,42.664 34.251,42.269 34.737,42.269 L36.613,42.269 C37.099,42.269 37.493,42.664 37.493,43.150 C37.493,43.637 37.099,44.031 36.613,44.031 ZM19.723,45.087 L25.353,45.087 C26.873,45.087 28.110,46.325 28.110,47.847 L28.110,53.483 C28.110,55.005 26.873,56.242 25.353,56.242 L19.723,56.242 C18.203,56.242 16.967,55.005 16.967,53.483 L16.967,47.847 C16.967,46.325 18.203,45.087 19.723,45.087 ZM18.726,53.483 C18.726,54.034 19.173,54.481 19.723,54.481 L25.353,54.481 C25.903,54.481 26.350,54.034 26.350,53.483 L26.350,47.847 C26.350,47.296 25.903,46.849 25.353,46.849 L19.723,46.849 C19.173,46.849 18.726,47.296 18.726,47.847 L18.726,53.483 ZM23.793,48.163 C24.136,47.820 24.694,47.820 25.037,48.163 C25.380,48.507 25.380,49.066 25.037,49.409 L21.283,53.166 C21.111,53.338 20.887,53.424 20.662,53.424 C20.437,53.424 20.211,53.338 20.040,53.166 C19.696,52.822 19.696,52.264 20.040,51.921 L23.793,48.163 ZM16.967,34.696 C16.967,33.175 18.203,31.937 19.723,31.937 L25.353,31.937 C26.873,31.937 28.110,33.175 28.110,34.696 L28.110,40.332 C28.110,41.854 26.873,43.092 25.353,43.092 L19.723,43.092 C18.203,43.092 16.967,41.854 16.967,40.332 L16.967,34.696 ZM18.726,40.332 C18.726,40.883 19.173,41.330 19.723,41.330 L25.353,41.330 C25.903,41.330 26.350,40.883 26.350,40.332 L26.350,34.696 C26.350,34.146 25.903,33.698 25.353,33.698 L19.723,33.698 C19.173,33.698 18.726,34.146 18.726,34.696 L18.726,40.332 ZM20.662,36.633 L24.415,36.633 C24.901,36.633 25.295,37.027 25.295,37.514 C25.295,38.001 24.901,38.395 24.415,38.395 L20.662,38.395 C20.176,38.395 19.782,38.001 19.782,37.514 C19.782,37.027 20.176,36.633 20.662,36.633 ZM3.830,6.516 C3.830,4.995 5.066,3.757 6.586,3.757 L38.490,3.757 C40.010,3.757 41.247,4.995 41.247,6.516 L41.247,26.242 C41.247,27.764 40.010,29.001 38.490,29.001 L6.586,29.001 C5.066,29.001 3.830,27.764 3.830,26.242 L3.830,6.516 ZM5.589,26.242 C5.589,26.793 6.036,27.240 6.586,27.240 L38.490,27.240 C39.040,27.240 39.487,26.793 39.487,26.242 L39.487,6.516 C39.487,5.966 39.040,5.518 38.490,5.518 L6.586,5.518 C6.036,5.518 5.589,5.966 5.589,6.516 L5.589,26.242 ZM6.586,45.087 L12.216,45.087 C13.736,45.087 14.972,46.325 14.972,47.847 L14.972,53.483 C14.972,55.005 13.736,56.242 12.216,56.242 L6.586,56.242 C5.066,56.242 3.830,55.005 3.830,53.483 L3.830,47.847 C3.830,46.325 5.066,45.087 6.586,45.087 ZM5.589,53.483 C5.589,54.034 6.036,54.481 6.586,54.481 L12.216,54.481 C12.766,54.481 13.213,54.034 13.213,53.483 L13.213,47.847 C13.213,47.296 12.766,46.849 12.216,46.849 L6.586,46.849 C6.036,46.849 5.589,47.296 5.589,47.847 L5.589,53.483 ZM6.902,48.163 C7.246,47.819 7.803,47.819 8.147,48.163 L9.401,49.420 L10.656,48.163 C10.999,47.819 11.556,47.819 11.900,48.163 C12.243,48.507 12.243,49.066 11.900,49.409 L10.645,50.665 L11.900,51.921 C12.243,52.264 12.243,52.822 11.900,53.166 C11.728,53.338 11.503,53.424 11.278,53.424 C11.052,53.424 10.828,53.338 10.656,53.166 L9.401,51.910 L8.147,53.166 C7.975,53.338 7.750,53.424 7.525,53.424 C7.299,53.424 7.074,53.338 6.902,53.166 C6.559,52.822 6.559,52.264 6.902,51.921 L8.157,50.665 L6.902,49.409 C6.559,49.066 6.559,48.507 6.902,48.163 ZM3.830,34.696 C3.830,33.175 5.066,31.937 6.586,31.937 L12.216,31.937 C13.736,31.937 14.972,33.175 14.972,34.696 L14.972,40.332 C14.972,41.854 13.736,43.092 12.216,43.092 L6.586,43.092 C5.066,43.092 3.830,41.854 3.830,40.332 L3.830,34.696 ZM5.589,40.332 C5.589,40.883 6.036,41.330 6.586,41.330 L12.216,41.330 C12.766,41.330 13.213,40.883 13.213,40.332 L13.213,34.696 C13.213,34.146 12.766,33.698 12.216,33.698 L6.586,33.698 C6.036,33.698 5.589,34.146 5.589,34.696 L5.589,40.332 ZM7.525,36.633 L8.522,36.633 L8.522,35.635 C8.522,35.149 8.915,34.755 9.401,34.755 C9.887,34.755 10.281,35.149 10.281,35.635 L10.281,36.633 L11.278,36.633 C11.763,36.633 12.157,37.027 12.157,37.514 C12.157,38.001 11.763,38.395 11.278,38.395 L10.281,38.395 L10.281,39.393 C10.281,39.880 9.887,40.274 9.401,40.274 C8.915,40.274 8.522,39.880 8.522,39.393 L8.522,38.395 L7.525,38.395 C7.039,38.395 6.645,38.001 6.645,37.514 C6.645,37.027 7.039,36.633 7.525,36.633 ZM44.120,14.635 C44.606,14.635 45.000,15.030 45.000,15.517 L45.000,57.240 C45.000,58.762 43.764,60.000 42.244,60.000 L2.756,60.000 C1.236,60.000 -0.000,58.762 -0.000,57.240 L-0.000,2.759 C-0.000,1.238 1.236,-0.001 2.756,-0.001 L42.244,-0.001 C43.764,-0.001 45.000,1.238 45.000,2.759 L45.000,11.228 C45.000,11.715 44.606,12.109 44.120,12.109 C43.634,12.109 43.240,11.715 43.240,11.228 L43.240,2.759 C43.240,2.209 42.794,1.761 42.244,1.761 L2.756,1.761 C2.206,1.761 1.759,2.209 1.759,2.759 L1.759,57.240 C1.759,57.790 2.206,58.238 2.756,58.238 L42.244,58.238 C42.794,58.238 43.240,57.790 43.240,57.240 L43.240,15.517 C43.240,15.030 43.634,14.635 44.120,14.635 Z"/>
</svg>