<svg 
 xmlns="http://www.w3.org/2000/svg"
 xmlns:xlink="http://www.w3.org/1999/xlink"
 width="60px" height="60px">
<path fill-rule="evenodd"  fill="rgb(255, 255, 255)"
 d="M13.040,47.953 L31.221,47.953 C32.357,47.953 32.357,49.711 31.221,49.711 L13.040,49.711 C11.904,49.711 11.904,47.953 13.040,47.953 ZM13.040,32.956 C11.904,32.956 11.904,31.199 13.040,31.199 L46.146,31.199 C47.283,31.199 47.283,32.956 46.146,32.956 L13.040,32.956 ZM46.146,41.334 L13.040,41.334 C11.904,41.334 11.904,39.576 13.040,39.576 L46.146,39.576 C46.631,39.576 47.025,39.969 47.025,40.455 C47.025,40.940 46.631,41.334 46.146,41.334 ZM60.000,50.387 L60.000,55.605 C60.000,58.028 58.029,59.999 55.605,59.999 L4.394,59.999 C1.971,59.999 -0.000,58.028 -0.000,55.605 L-0.000,0.879 C-0.000,0.393 0.394,-0.001 0.879,-0.001 L11.377,-0.001 C11.863,-0.001 12.256,0.393 12.256,0.879 L12.256,4.763 C12.256,5.085 12.080,5.382 11.796,5.535 C10.629,6.168 9.903,7.384 9.903,8.706 C9.903,10.696 11.528,12.314 13.526,12.314 C15.524,12.314 17.150,10.696 17.150,8.706 C17.150,7.384 16.424,6.168 15.256,5.535 C14.972,5.382 14.796,5.085 14.796,4.763 L14.796,0.879 C14.796,0.393 15.189,-0.001 15.675,-0.001 L27.851,-0.001 C28.337,-0.001 28.730,0.393 28.730,0.879 L28.730,4.763 C28.730,5.085 28.553,5.382 28.270,5.535 C27.102,6.168 26.377,7.384 26.377,8.706 C26.377,10.696 28.002,12.314 30.000,12.314 C31.998,12.314 33.623,10.696 33.623,8.706 C33.623,7.384 32.898,6.168 31.730,5.535 C31.446,5.382 31.270,5.085 31.270,4.763 L31.270,0.879 C31.270,0.393 31.663,-0.001 32.149,-0.001 L44.325,-0.001 C44.811,-0.001 45.204,0.393 45.204,0.879 L45.204,4.763 C45.204,5.085 45.027,5.382 44.744,5.535 C43.576,6.168 42.851,7.384 42.851,8.706 C42.851,10.696 44.476,12.314 46.474,12.314 C48.472,12.314 50.097,10.696 50.097,8.706 C50.097,7.384 49.372,6.168 48.204,5.535 C47.920,5.382 47.744,5.085 47.744,4.763 L47.744,0.879 C47.744,0.393 48.137,-0.001 48.622,-0.001 L59.121,-0.001 C59.606,-0.001 60.000,0.393 60.000,0.879 L60.000,45.705 C60.000,46.841 58.242,46.841 58.242,45.705 L58.242,23.272 L1.758,23.272 L1.758,55.605 C1.758,57.059 2.941,58.242 4.394,58.242 L55.605,58.242 C57.059,58.242 58.242,57.059 58.242,55.605 L58.242,50.387 C58.242,49.251 60.000,49.251 60.000,50.387 ZM58.242,21.514 L58.242,18.769 C51.432,18.788 44.584,18.798 37.739,18.798 C30.597,18.798 23.461,18.787 16.379,18.766 C15.894,18.765 15.501,18.370 15.502,17.884 C15.504,17.401 15.897,17.008 16.381,17.008 C16.382,17.008 16.383,17.008 16.384,17.008 C30.254,17.049 44.332,17.050 58.242,17.011 L58.242,1.757 L49.501,1.757 L49.501,4.270 C50.965,5.263 51.855,6.918 51.855,8.706 C51.855,11.665 49.441,14.072 46.474,14.072 C43.506,14.072 41.092,11.665 41.092,8.706 C41.092,6.918 41.982,5.263 43.446,4.270 L43.446,1.757 L33.027,1.757 L33.027,4.270 C34.492,5.263 35.381,6.918 35.381,8.706 C35.381,11.665 32.967,14.072 30.000,14.072 C27.032,14.072 24.619,11.665 24.619,8.706 C24.619,6.918 25.508,5.263 26.972,4.270 L26.972,1.757 L16.554,1.757 L16.554,4.270 C18.017,5.263 18.907,6.918 18.907,8.706 C18.907,11.665 16.493,14.072 13.526,14.072 C10.559,14.072 8.145,11.665 8.145,8.706 C8.145,6.918 9.034,5.263 10.499,4.270 L10.499,1.757 L1.758,1.757 L1.758,17.018 C4.803,17.049 7.925,17.046 11.052,17.009 C11.056,17.008 11.060,17.008 11.063,17.008 C11.543,17.008 11.936,17.395 11.942,17.877 C11.948,18.362 11.559,18.760 11.074,18.766 C9.354,18.787 7.636,18.798 5.931,18.798 C4.529,18.798 3.136,18.790 1.758,18.776 L1.758,21.514 L58.242,21.514 Z"/>
</svg>