<svg 
 xmlns="http://www.w3.org/2000/svg"
 xmlns:xlink="http://www.w3.org/1999/xlink"
 width="60px" height="60px">
<path fill-rule="evenodd"  fill="rgb(255, 255, 255)"
 d="M57.241,57.181 L55.362,57.181 C53.840,57.181 52.602,55.944 52.602,54.422 L52.602,12.152 C52.602,12.059 52.618,11.962 52.648,11.874 L55.466,3.420 C55.586,3.060 55.922,2.818 56.301,2.818 C56.680,2.818 57.017,3.060 57.137,3.420 L59.955,11.874 C59.971,11.923 59.982,11.973 59.990,12.025 C59.996,12.067 60.000,12.109 60.000,12.152 L60.000,54.422 C60.000,55.944 58.762,57.181 57.241,57.181 ZM56.301,6.483 L55.622,8.520 L56.981,8.520 L56.301,6.483 ZM57.568,10.281 L55.035,10.281 L54.705,11.272 L57.897,11.272 L57.568,10.281 ZM58.238,13.033 L54.364,13.033 L54.364,50.724 L58.238,50.724 L58.238,13.033 ZM58.238,52.485 L54.364,52.485 L54.364,54.422 C54.364,54.973 54.811,55.420 55.362,55.420 L57.241,55.420 C57.791,55.420 58.238,54.973 58.238,54.422 L58.238,52.485 ZM45.029,51.546 L41.272,51.546 C40.785,51.546 40.391,51.152 40.391,50.665 C40.391,50.178 40.785,49.784 41.272,49.784 L45.029,49.784 C45.516,49.784 45.910,50.178 45.910,50.665 C45.910,51.152 45.516,51.546 45.029,51.546 ZM38.454,49.784 C38.940,49.784 39.335,50.178 39.335,50.665 C39.335,51.152 38.940,51.546 38.454,51.546 L36.575,51.546 C36.089,51.546 35.694,51.152 35.694,50.665 C35.694,50.178 36.089,49.784 36.575,49.784 L38.454,49.784 ZM19.667,7.397 C19.181,7.397 18.786,7.003 18.786,6.516 C18.786,6.030 19.181,5.636 19.667,5.636 L24.364,5.636 C24.850,5.636 25.245,6.030 25.245,6.516 C25.245,7.003 24.850,7.397 24.364,7.397 L19.667,7.397 ZM27.182,7.397 C26.696,7.397 26.301,7.003 26.301,6.516 C26.301,6.030 26.696,5.636 27.182,5.636 L28.121,5.636 C28.608,5.636 29.002,6.030 29.002,6.516 C29.002,7.003 28.608,7.397 28.121,7.397 L27.182,7.397 ZM45.029,14.090 C45.516,14.090 45.910,14.484 45.910,14.970 L45.910,43.150 C45.910,43.637 45.516,44.031 45.029,44.031 L34.589,44.031 C34.153,45.071 33.902,46.166 34.095,47.130 L35.921,45.108 C36.247,44.747 36.805,44.718 37.165,45.045 C37.526,45.371 37.555,45.927 37.229,46.289 L34.413,49.406 C34.239,49.598 34.000,49.696 33.759,49.696 C33.549,49.696 33.338,49.621 33.170,49.469 L30.052,46.654 C29.691,46.328 29.662,45.771 29.988,45.410 C30.314,45.049 30.872,45.020 31.232,45.346 L32.270,46.284 C32.290,45.522 32.456,44.759 32.705,44.031 L16.849,44.031 C16.363,44.031 15.969,43.637 15.969,43.150 L15.969,14.970 C15.969,14.484 16.363,14.090 16.849,14.090 L35.351,14.090 C35.097,12.310 34.459,10.023 33.057,8.984 L33.057,11.709 C33.057,12.195 32.663,12.589 32.177,12.589 C31.690,12.589 31.296,12.195 31.296,11.709 L31.296,7.508 C31.296,7.022 31.690,6.627 32.177,6.627 L36.377,6.627 C36.863,6.627 37.258,7.022 37.258,7.508 C37.258,7.994 36.863,8.388 36.377,8.388 L34.979,8.388 C36.376,10.019 36.917,12.436 37.126,14.090 L45.029,14.090 ZM29.941,42.269 L33.480,42.269 C34.401,40.541 35.527,39.278 35.619,39.174 C35.946,38.813 36.503,38.785 36.863,39.111 C37.224,39.437 37.253,39.994 36.927,40.355 C36.562,40.760 36.026,41.445 35.513,42.269 L44.149,42.269 L44.149,29.002 L29.941,29.002 L29.941,42.269 ZM40.391,27.240 L40.391,24.407 C38.993,24.739 37.891,25.842 37.559,27.240 L40.391,27.240 ZM28.180,15.851 L17.730,15.851 L17.730,31.936 L23.553,31.936 C23.931,29.565 25.809,27.688 28.180,27.310 L28.180,15.851 ZM28.180,29.105 C26.782,29.436 25.679,30.538 25.347,31.936 L28.180,31.936 L28.180,29.105 ZM28.180,36.619 C26.782,36.951 25.679,38.053 25.347,39.451 L28.180,39.451 L28.180,36.619 ZM28.180,41.213 L24.364,41.213 C23.877,41.213 23.483,40.819 23.483,40.332 C23.483,37.556 25.522,35.249 28.180,34.825 L28.180,33.698 L17.730,33.698 L17.730,42.269 L28.180,42.269 L28.180,41.213 ZM36.377,16.790 C35.891,16.790 35.497,16.396 35.496,15.910 C35.496,15.891 35.496,15.870 35.496,15.851 L29.941,15.851 L29.941,27.240 L35.765,27.240 C36.188,24.582 38.497,22.543 41.272,22.543 C41.758,22.543 42.153,22.938 42.153,23.424 L42.153,27.240 L44.149,27.240 L44.149,15.851 L37.257,15.851 C37.258,15.878 37.258,15.899 37.258,15.910 C37.258,16.396 36.863,16.790 36.377,16.790 ZM45.969,59.999 L4.638,59.999 C4.152,59.999 3.757,59.605 3.757,59.119 L3.757,48.643 C1.620,48.230 -0.000,46.346 -0.000,44.090 C-0.000,41.833 1.620,39.950 3.757,39.536 L3.757,37.371 C1.620,36.958 -0.000,35.074 -0.000,32.818 C-0.000,30.561 1.620,28.677 3.757,28.265 L3.757,26.098 C1.620,25.686 -0.000,23.802 -0.000,21.546 C-0.000,19.289 1.620,17.405 3.757,16.992 L3.757,14.827 C1.620,14.413 -0.000,12.530 -0.000,10.274 C-0.000,8.017 1.620,6.133 3.757,5.720 L3.757,0.881 C3.757,0.394 4.152,-0.001 4.638,-0.001 L45.969,-0.001 C48.008,-0.001 49.667,1.658 49.667,3.698 L49.667,18.745 C49.667,19.231 49.273,19.626 48.786,19.626 C48.300,19.626 47.906,19.231 47.906,18.745 L47.906,3.698 C47.906,2.630 47.037,1.761 45.969,1.761 L13.033,1.761 L13.033,54.481 L45.969,54.481 C47.037,54.481 47.906,53.611 47.906,52.544 L47.906,22.899 C47.906,22.412 48.300,22.018 48.786,22.018 C49.273,22.018 49.667,22.412 49.667,22.899 L49.667,56.301 C49.667,58.341 48.008,59.999 45.969,59.999 ZM3.757,7.535 C2.601,7.908 1.761,8.994 1.761,10.274 C1.761,11.553 2.601,12.639 3.757,13.011 L3.757,7.535 ZM3.757,18.807 C2.601,19.180 1.761,20.266 1.761,21.546 C1.761,22.825 2.601,23.911 3.757,24.284 L3.757,18.807 ZM3.757,30.080 C2.601,30.452 1.761,31.538 1.761,32.818 C1.761,34.097 2.601,35.183 3.757,35.556 L3.757,30.080 ZM3.757,41.352 C2.601,41.724 1.761,42.810 1.761,44.090 C1.761,45.369 2.601,46.455 3.757,46.828 L3.757,41.352 ZM11.272,1.761 L5.519,1.761 L5.519,5.720 C7.371,6.078 8.834,7.540 9.191,9.393 L9.335,9.393 C9.821,9.393 10.215,9.787 10.215,10.274 C10.215,10.760 9.821,11.154 9.335,11.154 L7.456,11.154 C6.970,11.154 6.575,10.760 6.575,10.274 C6.575,9.813 6.928,9.437 7.378,9.397 C7.095,8.516 6.399,7.819 5.519,7.535 L5.519,16.992 C7.371,17.350 8.834,18.812 9.191,20.665 L9.335,20.665 C9.821,20.665 10.215,21.059 10.215,21.546 C10.215,22.032 9.821,22.427 9.335,22.427 L7.456,22.427 C6.970,22.427 6.575,22.032 6.575,21.546 C6.575,21.086 6.928,20.709 7.378,20.669 C7.095,19.788 6.399,19.091 5.519,18.807 L5.519,28.265 C7.371,28.622 8.834,30.085 9.191,31.936 L9.335,31.936 C9.821,31.936 10.215,32.331 10.215,32.818 C10.215,33.304 9.821,33.698 9.335,33.698 L7.456,33.698 C6.970,33.698 6.575,33.304 6.575,32.818 C6.575,32.357 6.928,31.981 7.378,31.941 C7.095,31.060 6.399,30.363 5.519,30.080 L5.519,39.536 C7.371,39.894 8.834,41.357 9.191,43.209 L9.335,43.209 C9.821,43.209 10.215,43.603 10.215,44.090 C10.215,44.576 9.821,44.970 9.335,44.970 L7.456,44.970 C6.970,44.970 6.575,44.576 6.575,44.090 C6.575,43.630 6.928,43.253 7.378,43.213 C7.095,42.333 6.399,41.635 5.519,41.352 L5.519,54.481 L11.272,54.481 L11.272,1.761 ZM47.906,55.693 C47.342,56.041 46.678,56.242 45.969,56.242 L5.519,56.242 L5.519,58.238 L45.969,58.238 C47.037,58.238 47.906,57.369 47.906,56.301 L47.906,55.693 Z"/>
</svg>