<svg 
 xmlns="http://www.w3.org/2000/svg"
 xmlns:xlink="http://www.w3.org/1999/xlink"
 width="60px" height="60px">
<path fill-rule="evenodd"  fill="rgb(255, 255, 255)"
 d="M22.405,30.783 C19.969,30.783 17.987,28.801 17.987,26.364 C17.987,23.927 19.969,21.945 22.405,21.945 C24.842,21.945 26.824,23.927 26.824,26.364 C26.824,28.801 24.842,30.783 22.405,30.783 ZM22.405,23.703 C20.938,23.703 19.745,24.897 19.745,26.364 C19.745,27.831 20.938,29.025 22.405,29.025 C23.873,29.025 25.066,27.831 25.066,26.364 C25.066,24.897 23.873,23.703 22.405,23.703 ZM29.602,26.364 C29.602,23.927 31.584,21.945 34.021,21.945 C36.457,21.945 38.440,23.927 38.440,26.364 C38.440,28.801 36.457,30.783 34.021,30.783 C31.584,30.783 29.602,28.801 29.602,26.364 ZM36.682,26.364 C36.682,24.897 35.488,23.703 34.021,23.703 C32.554,23.703 31.360,24.897 31.360,26.364 C31.360,27.831 32.554,29.025 34.021,29.025 C35.488,29.025 36.682,27.831 36.682,26.364 ZM50.858,45.563 L50.858,53.150 C50.858,53.750 50.115,54.192 49.597,53.941 L42.264,50.400 C39.611,51.283 36.839,51.731 34.021,51.731 C31.147,51.731 28.333,51.267 25.643,50.355 C23.741,55.326 18.905,58.869 13.253,58.869 C11.877,58.869 10.522,58.659 9.221,58.246 L5.768,59.914 C5.196,60.190 4.507,59.760 4.507,59.123 L4.507,55.587 C1.637,53.077 -0.000,49.487 -0.000,45.672 C-0.000,44.860 0.075,44.044 0.224,43.247 C0.432,42.130 2.160,42.452 1.952,43.570 C1.823,44.261 1.758,44.968 1.758,45.672 C1.758,49.099 3.283,52.317 5.944,54.501 C6.147,54.668 6.265,54.917 6.265,55.179 L6.265,57.722 L8.779,56.508 C8.989,56.406 9.230,56.392 9.450,56.469 C10.671,56.895 11.951,57.111 13.253,57.111 C19.592,57.111 24.749,51.979 24.749,45.672 C24.749,39.364 19.592,34.232 13.253,34.232 C9.286,34.232 5.651,36.228 3.529,39.569 C2.919,40.528 1.436,39.586 2.045,38.626 C3.720,35.990 6.212,34.080 9.084,33.138 C8.393,30.785 8.042,28.343 8.042,25.865 C8.042,18.955 10.745,12.459 15.652,7.574 C20.559,2.689 27.082,-0.001 34.021,-0.001 C38.812,-0.001 43.493,1.308 47.560,3.785 C48.530,4.376 47.616,5.877 46.645,5.286 C42.854,2.977 38.489,1.757 34.021,1.757 C20.665,1.757 9.800,12.572 9.800,25.865 C9.800,28.196 10.133,30.491 10.789,32.702 C11.592,32.552 12.416,32.475 13.253,32.475 C20.561,32.475 26.506,38.394 26.506,45.672 C26.506,46.704 26.386,47.709 26.160,48.674 C28.683,49.535 31.323,49.973 34.021,49.973 C36.766,49.973 39.461,49.518 42.033,48.622 C42.253,48.545 42.494,48.558 42.704,48.660 L49.101,51.749 L49.101,45.152 C49.101,44.889 49.219,44.640 49.422,44.473 C55.027,39.872 58.242,33.089 58.242,25.865 C58.242,22.475 57.549,19.197 56.183,16.122 C54.863,13.152 52.981,10.514 50.591,8.281 C49.760,7.505 50.960,6.220 51.791,6.996 C54.354,9.391 56.373,12.221 57.789,15.409 C59.256,18.709 60.000,22.227 60.000,25.865 C60.000,33.478 56.674,40.633 50.858,45.563 ZM45.636,30.783 C43.200,30.783 41.218,28.801 41.218,26.364 C41.218,23.927 43.200,21.945 45.636,21.945 C48.073,21.945 50.055,23.927 50.055,26.364 C50.055,28.801 48.073,30.783 45.636,30.783 ZM45.636,23.703 C44.169,23.703 42.975,24.897 42.975,26.364 C42.975,27.831 44.169,29.025 45.636,29.025 C47.104,29.025 48.298,27.831 48.298,26.364 C48.298,24.897 47.104,23.703 45.636,23.703 Z"/>
</svg>