<svg 
 xmlns="http://www.w3.org/2000/svg"
 xmlns:xlink="http://www.w3.org/1999/xlink"
 width="67px" height="61px">
<path fill-rule="evenodd"  fill="rgb(255, 255, 255)"
 d="M66.954,58.338 L66.954,61.000 L56.852,61.000 L56.852,46.795 L66.954,46.795 L66.954,49.457 L59.891,49.457 L59.891,52.460 L66.804,52.460 L66.804,55.122 L59.891,55.122 L59.891,58.338 L66.954,58.338 ZM58.591,36.689 L45.175,20.860 L41.622,24.870 L41.622,36.689 L37.220,36.689 L37.220,1.497 L41.622,1.497 L41.622,19.699 L57.265,1.497 L62.780,1.497 L48.038,18.222 L64.053,36.689 L58.591,36.689 ZM31.314,46.795 L34.354,46.795 L34.354,61.000 L31.314,61.000 L31.314,46.795 ZM26.766,26.981 C26.766,32.099 23.266,37.322 13.721,37.322 C7.570,37.322 3.062,35.001 0.146,31.729 L2.744,28.405 C5.077,30.990 8.895,33.418 13.880,33.418 C20.190,33.418 22.206,30.041 22.206,27.350 C22.206,18.275 1.259,23.287 1.259,10.730 C1.259,4.926 6.456,0.969 13.403,0.969 C18.812,0.969 23.001,2.763 25.971,5.876 L23.319,9.094 C20.668,6.192 16.956,4.873 13.085,4.873 C8.842,4.873 5.820,7.142 5.820,10.466 C5.820,18.381 26.766,13.843 26.766,26.981 ZM10.173,49.457 L3.110,49.457 L3.110,52.460 L10.023,52.460 L10.023,55.122 L3.110,55.122 L3.110,58.338 L10.173,58.338 L10.173,61.000 L0.071,61.000 L0.071,46.795 L10.173,46.795 L10.173,49.457 ZM19.303,58.338 L25.338,58.338 L25.338,61.000 L16.263,61.000 L16.263,46.795 L19.303,46.795 L19.303,58.338 ZM51.168,49.457 L47.016,49.457 L47.016,61.000 L43.955,61.000 L43.955,49.457 L39.782,49.457 L39.782,46.795 L51.168,46.795 L51.168,49.457 Z"/>
</svg>