<svg 
 xmlns="http://www.w3.org/2000/svg"
 xmlns:xlink="http://www.w3.org/1999/xlink"
 width="72px" height="101px">
<path fill-rule="evenodd"  fill="rgb(166, 0, 0)"
 d="M38.412,98.916 C37.126,100.357 34.876,100.359 33.588,98.916 C32.216,97.379 0.000,60.998 0.000,36.215 C0.000,16.246 16.149,-0.001 36.000,-0.001 C55.850,-0.001 72.000,16.246 72.000,36.215 C72.000,60.998 39.783,97.379 38.412,98.916 ZM26.991,50.997 L31.468,50.997 L31.468,49.666 L28.490,49.666 L28.490,43.898 L26.991,43.898 L26.991,50.997 ZM19.002,50.997 L23.986,50.997 L23.986,49.666 L20.502,49.666 L20.502,48.060 L23.912,48.060 L23.912,46.729 L20.502,46.729 L20.502,45.228 L23.986,45.228 L23.986,43.898 L19.002,43.898 L19.002,50.997 ZM25.423,22.946 C27.332,22.946 29.164,23.606 30.472,25.056 L31.780,23.447 C30.315,21.892 28.248,20.995 25.580,20.995 C22.152,20.995 19.588,22.973 19.588,25.873 C19.588,32.149 29.922,29.644 29.922,34.180 C29.922,35.525 28.928,37.212 25.815,37.212 C23.356,37.212 21.472,35.999 20.321,34.707 L19.039,36.368 C20.478,38.003 22.702,39.163 25.737,39.163 C30.446,39.163 32.172,36.553 32.172,33.995 C32.172,27.430 21.838,29.697 21.838,25.742 C21.838,24.081 23.330,22.946 25.423,22.946 ZM35.916,43.898 L34.416,43.898 L34.416,50.997 L35.916,50.997 L35.916,43.898 ZM38.594,45.228 L40.653,45.228 L40.653,50.997 L42.163,50.997 L42.163,45.228 L44.211,45.228 L44.211,43.898 L38.594,43.898 L38.594,45.228 ZM49.940,21.259 L47.219,21.259 L39.501,30.357 L39.501,21.259 L37.330,21.259 L37.330,38.847 L39.501,38.847 L39.501,32.940 L41.254,30.936 L47.873,38.847 L50.568,38.847 L42.667,29.618 L49.940,21.259 ZM51.999,49.666 L48.515,49.666 L48.515,48.060 L51.925,48.060 L51.925,46.729 L48.515,46.729 L48.515,45.228 L51.999,45.228 L51.999,43.898 L47.015,43.898 L47.015,50.997 L51.999,50.997 L51.999,49.666 Z"/>
</svg>